<svg width="322" height="80" fill="none" xmlns="http://www.w3.org/2000/svg"><path d="m93.664 47.114-3.401-5.317c-.607-.943-1.102-1.565-1.485-1.869-.384-.303-.974-.455-1.773-.455h-1.94v7.64h-1.868v-7.64h-1.94c-.798 0-1.39.152-1.773.455-.367.304-.862.926-1.485 1.869l-3.401 5.317h-2.132l3.857-5.964c.559-.862 1.006-1.477 1.34-1.844.353-.384.743-.647 1.175-.79-.336-.16-.663-.416-.982-.767-.32-.368-.743-.943-1.27-1.725l-3.689-5.677h2.132l3.234 5.03c.622.958 1.118 1.59 1.485 1.893.383.287.974.43 1.772.43h1.677v-7.353h1.868v7.354h1.677c.814 0 1.405-.152 1.772-.455.383-.304.879-.927 1.485-1.869l3.234-5.03h2.132L91.7 36.024c-.958 1.405-1.708 2.236-2.252 2.491.416.144.79.4 1.126.767.352.367.814.99 1.39 1.868l3.832 5.964h-2.132Zm16.991 0-3.401-5.317c-.623-.943-1.126-1.565-1.509-1.869-.367-.303-.95-.455-1.749-.455h-2.73v7.64h-1.869V30.348h1.869v7.354h2.467c.798 0 1.381-.144 1.748-.431.384-.304.887-.935 1.509-1.893l3.234-5.03h2.132l-3.689 5.677c-.527.782-.95 1.357-1.27 1.725-.319.35-.646.606-.982.766a2.62 2.62 0 0 1 1.15.79c.352.368.807.983 1.365 1.845l3.857 5.964h-2.132Zm13.334-16.767h6.467c1.15 0 2.123.152 2.922.455.798.288 1.381.68 1.748 1.174.384.495.647.966.791 1.413.144.447.215.918.215 1.413 0 1.789-.734 2.979-2.203 3.57.878.207 1.573.67 2.084 1.389.51.702.766 1.548.766 2.538 0 3.21-2.068 4.815-6.203 4.815h-6.587V30.347Zm3.305 3.114v3.593h3.521c.798 0 1.365-.176 1.701-.527.335-.367.503-.79.503-1.27 0-1.197-.735-1.796-2.204-1.796h-3.521Zm0 6.443v4.072h3.976c.846 0 1.453-.184 1.821-.55.383-.384.574-.879.574-1.486 0-.575-.199-1.054-.598-1.437-.384-.4-.982-.599-1.797-.599h-3.976Zm14.405-7.209c1.66-1.677 3.672-2.515 6.035-2.515 2.364 0 4.376.838 6.036 2.515 1.677 1.66 2.515 3.672 2.515 6.036 0 2.363-.838 4.383-2.515 6.06-1.66 1.66-3.672 2.49-6.036 2.49-2.363 0-4.375-.83-6.035-2.49-1.661-1.677-2.491-3.697-2.491-6.06 0-2.364.83-4.376 2.491-6.036Zm9.772 2.131c-1.006-1.022-2.251-1.532-3.737-1.532-1.485 0-2.73.51-3.736 1.532-.99 1.022-1.485 2.324-1.485 3.905 0 1.596.495 2.906 1.485 3.928 1.006 1.006 2.251 1.509 3.736 1.509 1.501 0 2.747-.503 3.737-1.51 1.006-1.021 1.509-2.33 1.509-3.927 0-1.581-.503-2.883-1.509-3.905Zm12.075 2.108h2.107c.799 0 1.366-.175 1.701-.527.335-.367.503-.79.503-1.27 0-1.229-.782-1.843-2.347-1.843h-.12c-.671 0-1.429.151-2.276.455-.83.303-1.548.702-2.155 1.197l-2.156-1.988a10.5 10.5 0 0 1 3.042-2.012c1.134-.51 2.275-.766 3.425-.766h.168c.862.016 1.629.127 2.299.335.687.208 1.222.471 1.605.79.399.304.727.663.982 1.078.255.415.423.807.503 1.174.096.367.144.742.144 1.126 0 .91-.208 1.708-.623 2.395-.415.686-.966 1.165-1.653 1.437.863.208 1.541.663 2.036 1.365.511.703.767 1.55.767 2.54 0 1.452-.503 2.626-1.509 3.52-.99.878-2.555 1.326-4.695 1.342h-.168a8.32 8.32 0 0 1-3.64-.839 9.751 9.751 0 0 1-3.018-2.227l2.155-1.988c.591.574 1.31 1.045 2.156 1.413.862.351 1.685.527 2.467.527h.12c1.996-.032 2.994-.735 2.994-2.108 0-.575-.2-1.054-.599-1.437-.383-.4-.982-.599-1.796-.599h-2.419v-3.09Zm11.465-6.587h5.509c2.299 0 4.119.607 5.461 1.82 1.341 1.198 2.012 2.74 2.012 4.623 0 1.9-.671 3.458-2.012 4.671-1.342 1.198-3.162 1.797-5.461 1.797h-2.204v3.856h-3.305V30.347Zm3.305 9.797h2.467c1.166 0 2.132-.28 2.898-.838.783-.56 1.174-1.398 1.174-2.515 0-1.07-.391-1.893-1.174-2.467-.782-.575-1.748-.863-2.898-.863h-2.467v6.683Zm14.709-7.449c1.66-1.677 3.672-2.515 6.036-2.515 2.363 0 4.375.838 6.036 2.515 1.676 1.66 2.515 3.672 2.515 6.036 0 2.363-.839 4.383-2.515 6.06-1.661 1.66-3.673 2.49-6.036 2.49-2.364 0-4.376-.83-6.036-2.49-1.661-1.677-2.491-3.697-2.491-6.06 0-2.364.83-4.376 2.491-6.036Zm9.772 2.131c-1.006-1.022-2.251-1.532-3.736-1.532-1.485 0-2.731.51-3.737 1.532-.99 1.022-1.485 2.324-1.485 3.905 0 1.596.495 2.906 1.485 3.928 1.006 1.006 2.252 1.509 3.737 1.509 1.5 0 2.746-.503 3.736-1.51 1.006-1.021 1.509-2.33 1.509-3.927 0-1.581-.503-2.883-1.509-3.905Zm26.395 12.288-3.449-5.39c-.399-.59-.742-.99-1.03-1.197-.287-.208-.702-.311-1.245-.311h-.91v6.898h-3.306v-6.898h-.91c-.559 0-.982.103-1.27.311-.287.208-.622.607-1.006 1.198l-3.449 5.389h-3.736l4.096-6.395c.766-1.182 1.445-1.909 2.036-2.18-.511-.271-1.158-.942-1.941-2.012l-3.928-6.18h3.737l3.281 5.174c.4.59.743.99 1.03 1.198.288.207.703.311 1.246.311h.814v-6.683h3.306v6.683h.79c.543 0 .958-.104 1.245-.311.304-.208.647-.607 1.03-1.198l3.306-5.174h3.736l-3.952 6.18c-.734 1.038-1.373 1.709-1.916 2.012.591.288 1.27 1.014 2.036 2.18l4.096 6.395h-3.737Zm22.92 3.09h-3.306v-3.09h-10.922v3.09h-3.305V44h2.227l5.605-13.653h1.964L249.908 44h2.204v6.204Zm-8.767-13.797L240.351 44h6.012l-3.018-7.593Zm15.249.719h7.257v3.114h-7.257V44h7.856v3.114h-11.161V30.347h11.161v3.114h-7.856v3.665Zm24.521 9.988h-3.305V40.24h-6.491v6.874h-3.305V30.347h3.305v6.779h6.491v-6.779h3.305v16.767Zm17.54 0h-3.306V36.55l-7.952 10.563h-1.94V30.347h3.305V40.91l7.929-10.563h1.964v16.767Zm7.861-9.988h7.258v3.114h-7.258V44h7.857v3.114h-11.162V30.347h11.162v3.114h-7.857v3.665ZM33.52 42.566V13.413l-5.748-4.311-9.581 7.185v30.968c3.667-1.347 7.787-2.525 11.871-3.693 1.16-.332 2.316-.663 3.458-.996Z" fill="#fff"/><path d="M33.041 42.705V13.054l-.958-.719v30.647c.32-.092.64-.184.958-.277Zm-1.437.415V11.976l-.958-.718v32.137l.958-.275Zm-1.437.412V10.898l-.958-.718v33.626l.853-.244.105-.03Zm-1.437.411V9.82l-.959-.718v35.117l.959-.276Z" fill="#002040"/><path d="M42.143 39.77v-8.632l-4.311-2.396-7.665 3.354v11.436c4.215-1.206 8.386-2.402 11.976-3.762Z" fill="#fff"/><path d="M41.664 39.95v-9.078l-.958-.533v9.957a81.2 81.2 0 0 0 .958-.346Zm-1.437.514v-10.39l-.958-.533v11.248c.322-.107.642-.216.958-.325Zm-1.437.484V29.275l-.959-.533v12.516c.322-.103.642-.206.959-.31Z" fill="#002040"/><path d="M24.418 45.205V28.263L18.67 24.91l-9.581 5.27v21.743c3.492-2.813 9.187-4.863 15.33-6.718Z" fill="#fff"/><path d="M23.94 45.35V27.985l-.959-.559v18.22c.318-.098.638-.197.958-.294Zm-4.312 1.393a82.61 82.61 0 0 0-.958.338v-22.17l.958.558v21.274Zm1.437-.484c-.322.106-.641.212-.958.32V25.75l.958.558V46.26Zm1.437-.463-.958.306V26.587l.958.559v18.65Z" fill="#002040"/><path d="m23.912 53.357.027-.01v.026l-.027-.016Z" fill="#fff"/><path d="M59.149 33.773C57.915 51.497 6.215 50.06 9.089 66.347c-18.443-23.233 41.106-20.359 43.593-34.97 1.916-11.257-25.15-26.586-25.15-26.586S60.166 19.16 59.15 33.773Z" fill="#fff"/><path d="M64.179 37.844c-1.866 19.589-55.33 20.36-46.467 37.366-22.994-21.318 40.09-20.36 43.592-39.042 1.617-8.623-6.227-15.09-6.227-15.09s10.06 6.707 9.102 16.766Z" fill="#fff"/></svg>