<svg width="320" height="80" fill="none" xmlns="http://www.w3.org/2000/svg"><path d="M88.813 33.641c1.834 0 3.877.064 5.648 1.26 1.181.783 2.57 2.33 2.57 5.091 0 3.032-1.916 6.606-7.23 6.606h-4.467v8.314h-3.91v-21.27h7.389Zm.16 9.846c.86 0 2.105.031 3.095-.894.686-.622 1.053-1.676 1.053-2.569 0-.83-.335-1.835-1.021-2.425-.687-.59-1.772-.878-2.984-.878h-3.782v6.766h3.638Zm11.664-2.777c1.085-1.021 2.696-1.915 5.106-1.915 2.425 0 4.037.894 5.122 1.915 1.612 1.516 2.441 3.877 2.441 6.287s-.829 4.771-2.441 6.287c-1.085 1.021-2.697 1.93-5.122 1.93-2.41 0-4.021-.909-5.106-1.93-1.612-1.516-2.442-3.877-2.442-6.287-.016-2.425.83-4.771 2.442-6.287Zm2.633 10.755a3.153 3.153 0 0 0 2.473 1.149c1.372 0 2.138-.734 2.473-1.15.255-.27 1.181-1.515 1.181-4.467s-.926-4.18-1.181-4.468a3.155 3.155 0 0 0-2.473-1.149c-1.357 0-2.138.734-2.473 1.15-.24.286-1.181 1.515-1.181 4.467 0 2.936.941 4.18 1.181 4.468Zm22.403-6.574c-.064-.798-.367-1.74-.782-2.33-.383-.559-1.117-1.18-2.362-1.18-1.213 0-2.01.621-2.505 1.451-.782 1.277-.83 3.255-.83 4.165 0 1.452.208 3.191.83 4.18.399.623 1.213 1.42 2.505 1.42.926 0 1.708-.366 2.298-1.18.463-.654.782-1.58.83-2.394l3.287.4c-.192 1.451-.83 3.079-1.979 4.116-.957.862-2.457 1.644-4.563 1.644-2.346 0-3.878-.926-4.772-1.771-1.212-1.15-2.361-3.192-2.361-6.415 0-3 1.021-4.803 1.835-5.76 1.149-1.373 3.095-2.474 5.393-2.474 1.963 0 3.575.686 4.58 1.74 1.021 1.02 1.643 2.569 1.867 3.957l-3.271.43Zm15.382 0c-.064-.798-.367-1.74-.782-2.33-.367-.559-1.117-1.18-2.361-1.18-1.213 0-2.011.621-2.506 1.451-.765 1.277-.829 3.255-.829 4.165 0 1.452.223 3.191.829 4.18.399.623 1.213 1.42 2.506 1.42.925 0 1.707-.366 2.297-1.18.463-.654.782-1.58.83-2.394l3.287.4c-.175 1.451-.829 3.079-1.978 4.116-.958.862-2.442 1.644-4.548 1.644-2.362 0-3.878-.926-4.771-1.771-1.213-1.15-2.362-3.192-2.362-6.415 0-3 1.022-4.803 1.835-5.76 1.149-1.373 3.096-2.474 5.394-2.474 1.946 0 3.558.686 4.579 1.74 1.022 1.02 1.644 2.569 1.867 3.957l-3.287.43Zm19.867 5.425c-.559 1.851-1.676 2.936-2.602 3.59-1.244.83-2.856 1.309-4.563 1.309-2.139 0-4.309-.91-5.617-2.234-1.213-1.229-2.106-3.383-2.106-5.92 0-3.223 1.34-5.362 2.792-6.574.846-.718 2.426-1.708 4.803-1.708 3.016 0 4.931 1.388 5.952 2.825 1.085 1.484 1.595 3.558 1.595 5.361v.718h-11.217c0 .176-.032 1.612.527 2.76.829 1.74 2.361 2.17 3.414 2.17.83 0 1.883-.255 2.761-1.148.526-.559.75-1.085.83-1.58l3.431.431Zm-3.655-4.994c0-.894-.223-1.915-.686-2.601a3.419 3.419 0 0 0-2.792-1.453c-1.181 0-2.202.59-2.825 1.325a4.432 4.432 0 0 0-.925 2.729h7.228Zm19.211-6.224v15.814h-3.604V41.779h-4.087c-.094 2.138-.158 3-.222 4.468-.096 1.644-.208 5.106-1.611 7.005-.783 1.021-1.741 1.42-2.426 1.612-.4.127-.83.175-1.277.175a3.09 3.09 0 0 1-.926-.127v-2.729h.304c.462-.032 1.085-.271 1.483-.59 1.245-.99 1.357-3.224 1.485-4.995.16-2.33.192-3.718.206-5.824l.032-1.676h10.643Zm7.389 5.633h3.973c1.021 0 3 .128 4.309 1.42 1.181 1.15 1.293 2.76 1.293 3.623 0 2.265-.927 3.414-1.645 4.005-.255.191-1.419 1.117-3.653 1.117h-7.867V39.098h3.59v5.633Zm0 7.564h2.824c.687 0 1.421-.032 2.043-.559.367-.35.813-.925.813-1.93 0-.862-.254-1.548-.957-2.011-.622-.399-1.404-.463-1.883-.463h-2.824v4.963h-.016Zm14.808-13.197 2.92 4.915 3.032-4.915h3.287l-4.628 7.149 5.49 8.649h-4.213l-3.59-5.952-3.783 5.952h-3.286l5.394-8.202-4.836-7.596h4.213Zm12.877 1.612c1.085-1.021 2.698-1.915 5.106-1.915 2.425 0 4.038.894 5.123 1.915 1.611 1.516 2.441 3.877 2.441 6.287s-.846 4.771-2.441 6.287c-1.085 1.021-2.698 1.93-5.123 1.93-2.408 0-4.021-.909-5.106-1.93-1.611-1.516-2.442-3.877-2.442-6.287 0-2.425.831-4.771 2.442-6.287Zm2.634 10.755a3.15 3.15 0 0 0 2.472 1.149 3.143 3.143 0 0 0 2.489-1.15c.24-.27 1.181-1.515 1.181-4.467s-.925-4.18-1.181-4.468a3.164 3.164 0 0 0-2.489-1.149c-1.356 0-2.138.734-2.472 1.15-.256.286-1.181 1.515-1.181 4.467 0 2.936.941 4.18 1.181 4.468Zm11.966-8.09a5.554 5.554 0 0 1 2.538-3.495c.526-.335 1.979-1.085 4.467-1.085 1.549 0 3.128.271 4.309.926 1.739.957 2.169 2.345 2.169 3.35 0 1.086-.526 3.16-3.222 3.463v.064c.925.128 1.947.527 2.569 1.18.559.591.989 1.58.989 2.634 0 1.58-.926 2.968-2.107 3.75-1.419.925-3.382 1.053-4.834 1.053-1.468 0-3.686-.16-5.249-1.389-.863-.686-1.677-1.866-1.915-3.35l3.254-.559c.128.495.4 1.245.766 1.676.815.941 2.074 1.02 2.888 1.02.815 0 1.676-.095 2.362-.558.622-.43.926-1.021.926-1.803 0-.654-.128-1.18-.686-1.643-.718-.59-1.675-.687-2.57-.687h-1.643v-2.425h1.643c.623 0 1.516-.128 2.012-.367.654-.335 1.02-.894 1.02-1.803a1.66 1.66 0 0 0-.654-1.34c-.718-.59-1.739-.623-2.266-.623-.718 0-1.771.096-2.633.83-.367.303-.861.894-1.021 1.82l-3.112-.64Zm32.218-6.016h-10.261v4.707h4.563c1.645 0 3.224.128 4.835 1.245 1.581 1.085 2.57 2.697 2.57 5.026 0 2.17-.815 3.782-1.835 4.803-1.548 1.548-3.319 1.772-5.17 1.772h-9.925v-21.27h15.223v3.717Zm-10.261 13.819h4.005c.75 0 1.436-.032 2.139-.75.686-.686.781-1.452.781-2.043 0-.67-.191-1.356-.781-1.947-.703-.702-1.613-.781-2.266-.781h-3.878v5.52Zm14.521-7.691a5.71 5.71 0 0 1 2.728-3.718c1.229-.718 2.872-.99 4.932-.99 2.6 0 5.233.335 6.414 2.793.622 1.276.558 2.633.558 3.813v6.112c0 1.276.175 2.457.463 3.415h-4.499c-.128-.623-.224-1.453-.24-2.506-.591 1.053-2.028 2.825-5.298 2.825-1.453 0-2.952-.367-3.973-1.213-.99-.814-1.613-2.106-1.613-3.526 0-1.58.687-3.48 3.384-4.596 1.74-.718 4.564-.958 5.824-1.021l1.484-.064v-.335c0-.431-.032-1.356-.463-1.867-.59-.686-1.771-.718-2.233-.718-.639 0-1.421.064-2.076.463-.398.239-.924.75-1.116 1.611l-4.276-.479Zm8.776 3.94c-1.548.129-3.096.288-3.974 1.357a2.283 2.283 0 0 0-.494 1.42c0 .687.336 1.15.686 1.389.43.335 1.085.494 1.707.494.927 0 2.011-.399 2.634-1.149.096-.096.829-1.02.829-2.824v-.83l-1.388.144Zm14.058-8.329v5.92h4.994v-5.92h4.612v15.798h-4.612v-6.638h-4.994v6.638h-4.611V39.098h4.611Zm17.824 0v6.08h1.245c1.339 0 1.897-.654 2.233-1.372.655-1.389.623-2.474 1.213-3.559.463-.861 1.085-1.085 1.483-1.149h3.815a7.768 7.768 0 0 0-1.213 1.708c-.494 1.021-.957 2.697-1.245 3.415-.366.989-.989 1.978-2.569 2.106v.064c.846.127 1.708.558 2.361 1.516.4.59.671 1.356 1.119 2.569.43 1.244.62 1.675 1.02 2.632.319.719.495 1.15 1.021 1.804h-4.341c-.684-.224-1.148-.687-1.707-2.298-.43-1.229-.494-1.676-.781-2.362l-.224-.558c-.462-1.181-1.084-1.42-2.043-1.42h-1.387v6.638h-4.611V39.098h4.611ZM38.916 78.4C20.103 78.4 4.8 63.114 4.8 44.3c0-10.802 4.963-20.743 13.611-27.254l.351-.287V1.6h19.58v8.6h.574c18.797 0 34.1 15.303 34.1 34.117 0 18.797-15.303 34.083-34.1 34.083Z" fill="#19502E"/><path d="m29.038 44.843 7.101-6.973v-4.74l-7.1 6.942v4.771Zm0-17.664 7.101-6.99v-4.467l-7.1 6.941v4.516Zm0 5.84 7.101-6.973v-4.468l-7.1 6.941v4.5Zm-2.026-17.25-.942-.909V3.802h-1.085v10.005l-.925-.925v-9.08h-1.085v8.042l-.942-.925V3.802h-1.069V14.35l7.117 6.973V3.803h-1.07V15.77Zm2.026 23.09 7.101-6.973v-4.468l-7.1 6.941v4.5Zm-8.074-.99 7.117 6.974v-4.771l-7.117-6.941v4.739ZM35.07 10.92l-.942.925V3.802H33.06v9.096l-.941.909V3.802h-1.07v11.042l-.94.926V3.802h-1.07v17.52l7.101-6.972V3.802h-1.07v7.117Zm-14.106 9.27 7.117 6.99v-4.516l-7.117-6.941v4.468Zm0 5.857 7.117 6.973v-4.5l-7.117-6.941v4.468Zm0 5.84 7.117 6.973v-4.5l-7.117-6.94v4.467Zm42.334 3.686H46.016a3.624 3.624 0 0 0 .575-1.963 3.725 3.725 0 0 0-3.734-3.718 3.722 3.722 0 0 0-3.718 3.718c0 .814.255 1.548.702 2.155a1.189 1.189 0 0 0 0 1.995 3.737 3.737 0 0 0-.702 2.153 3.711 3.711 0 0 0 3.718 3.718 3.725 3.725 0 0 0 3.734-3.718c0-.718-.208-1.404-.575-1.962h12.861v.782h-1.276v1.1h1.276v1.133h-1.276v2.09h1.276v-.94h1.883v.94h1.261v-2.09h-1.26v-1.132h1.26v-1.101h-1.26v-.782h2.536a.906.906 0 0 0 .894-.91v-.558c0-.495-.415-.91-.894-.91Zm-18.51 4.34a1.924 1.924 0 0 1-3.846 0c0-.383.112-.75.32-1.053l.526-.91a1.57 1.57 0 0 1-.543-1.196c0-.479.208-.91.543-1.197l-.527-.91a1.826 1.826 0 0 1-.319-1.053 1.92 1.92 0 0 1 1.915-1.914c1.053 0 1.93.861 1.93 1.915 0 .781-.909 2.648-.909 2.648v1.006c0 .016.91 1.883.91 2.664Z" fill="#FFCB05"/><path d="M14.502 33.306v4.644c0 4.436 1.93 7.292 3.047 8.393.654.638 7.26 7.148 7.357 7.228 2.058 2.01 2.409 2.665 2.872 3.814v-5.138c0-4.58-2.314-6.351-3.51-7.516-2.793-2.712-4.644-4.5-6.16-6-2.84-2.856-3.606-5.425-3.606-5.425Zm9.765 22.898c-2.776-2.729-4.643-4.5-6.143-6-2.856-2.856-3.606-4.787-3.606-4.787v4.005c0 4.436 2.01 7.26 3.031 8.426.654.638 7.277 7.116 7.357 7.196 2.058 2.01 2.409 2.968 2.872 4.101V63.72c0-4.58-2.33-6.351-3.51-7.516Z" fill="#fff"/><path d="M38.916 12.387c-.511 0-1.022.016-1.532.032v2.17c.51-.032 1.005-.032 1.532-.032 16.419 0 29.727 13.308 29.727 29.743 0 16.42-13.308 29.728-29.727 29.728-16.42 0-29.744-13.308-29.744-29.728 0-9.111 4.101-17.265 10.563-22.722V18.8C11.996 24.625 7.002 33.88 7.002 44.3c0 17.616 14.281 31.897 31.914 31.897 17.616 0 31.897-14.281 31.897-31.898 0-17.616-14.281-31.913-31.898-31.913Z" fill="#fff"/><path d="M61.478 60.96c.495-.671.958-1.373 1.405-2.091v-4.277h-1.405v6.367Zm4.086-7.931a27.42 27.42 0 0 0 .542-1.867h-4.627v1.133h.702c1.228-.032 2.617-.048 3.383.733ZM34.75 51.002h-1.26V63.72h1.26V51.002Z" fill="#fff"/><path d="M30.602 48.56h4.149c1.069 0 1.819.224 2.25.639.43.415.638 1.165.638 2.234v11.888c0 1.069-.207 1.819-.638 2.234-.654.654-1.867.654-2.872.654-.224-.016-.447-.016-.639-.016v5.633c.415.08.83.16 1.26.223v-4.627c1.916 0 3.16-.655 3.75-1.963v6.893h.416c.255 0 .526 0 .782-.016V51.64c0-1.1.223-1.867.638-2.297.415-.431 1.165-.655 2.218-.655 1.069 0 2.649-.16 3.462.655.415.43.607 1.212.607 2.297v6.096h-2.84v-6.51h-1.23v20.887c.416-.048.815-.112 1.23-.192V58.964h2.84v12.303c.59-.16 1.165-.35 1.739-.558V59.443c0-1.276.303-2.234 1.596-2.665l-1.436-7.834h2.872l.479 8.552h.35l.48-8.552h3.031l-1.628 7.834c1.357.48 1.628 1.309 1.628 2.665v7.276a26.699 26.699 0 0 0 2.41-2.042V48.864h8.425c.064-.383.111-.75.16-1.149H47.037l.27 1.42c-.621-1.149-1.802-1.723-3.541-1.723h-1.23c-2.09 0-3.35.83-3.845 2.49-.447-1.74-1.77-2.602-3.957-2.602h-5.393v23.345c.414.144.83.287 1.244.415v-22.5h.016Zm26.153 8.984L55.4 56.252l1.356-7.021v8.313Z" fill="#fff"/><path d="M51.41 69.416c.43-.223.861-.446 1.292-.686v-9.622H51.41v10.308Z" fill="#fff"/></svg>