<svg width="320" height="80" fill="none" xmlns="http://www.w3.org/2000/svg"><path d="m144.8 31.2 6.08-4.48h-20.16v26.56h20.16V48.8h-14.4v-6.72h12.16V37.6h-12.16v-6.4h8.32Zm-25.12 0 6.08-4.48h-23.04v26.56h12c6.72 0 10.56-3.04 10.56-8.32 0-5.12-3.52-7.84-9.92-7.84h-7.04V31.2h11.36Zm-5.12 10.24c3.68 0 5.28 1.28 5.28 3.68 0 2.4-1.76 3.68-5.28 3.68h-6.08v-7.36h6.08Zm52.48-14.72h-10.88v26.56h5.76v-7.52h5.28c7.04 0 11.36-3.68 11.36-9.6s-4.48-9.44-11.52-9.44Zm0 14.56h-5.12V31.04h5.12c3.68 0 5.76 1.76 5.76 5.12-.16 3.36-2.08 5.12-5.76 5.12Zm-74.08 6.24c-1.6.8-3.2 1.28-4.96 1.28-5.12 0-8.96-3.68-8.96-8.8 0-5.12 3.68-8.8 8.96-8.8 1.92 0 3.68.64 5.28 1.6l4.16-3.04-.32-.32c-2.4-2.08-5.6-3.2-9.28-3.2-4 0-7.52 1.28-10.24 3.84-2.56 2.56-4.16 6.08-4 9.76 0 3.68 1.44 7.2 4 9.92 2.72 2.56 6.4 4 10.08 3.84 4.16 0 7.68-1.44 10.24-4l-3.68-2.72-1.28.64ZM265.6 37.6h-12.32V26.72h-5.76v26.56h5.76V42.4h12.32v10.88h5.76V26.72h-5.76V37.6Zm-38.88-10.88L215.2 53.28h5.76L223.2 48h12.16l2.24 5.28h6.08l-11.2-26.56h-5.76Zm-1.6 16.8 4.48-10.72 4.16 10.72h-8.64Zm67.04-4 10.4-12.8H296l-8.64 11.36h-3.2V26.72h-5.76v26.56h5.76V42.56h3.68l8.8 10.72H304l-11.84-13.76Zm-88.96-2.4h-7.04V31.2h15.04v-4.48h-20.8v26.56h12c6.72 0 10.56-3.04 10.56-8.32.16-5.12-3.36-7.84-9.76-7.84Zm-.96 11.84h-6.08V41.6h6.08c3.68 0 5.28 1.28 5.28 3.68.16 2.4-1.76 3.68-5.28 3.68ZM55.17 26.21a22.285 22.285 0 0 1 2.62 4.406l-19.918 14.88-8.325-5.288v-6.362l8.325 5.289L55.17 26.21Z" fill="#21A038"/><path d="M21.052 39.76c0-.286.006-.57.02-.852l-5.044-.25a22.358 22.358 0 0 0 1.634 9.585 22.121 22.121 0 0 0 4.743 7.183l3.578-3.625a16.997 16.997 0 0 1-3.651-5.522 17.178 17.178 0 0 1-1.28-6.52Z" fill="url(#a)"/><path d="M37.867 22.719c.282 0 .561.01.84.024l.252-5.114a22.726 22.726 0 0 0-1.092-.026 21.556 21.556 0 0 0-8.37 1.681 21.791 21.791 0 0 0-7.092 4.808l3.578 3.627a16.742 16.742 0 0 1 5.45-3.703 16.563 16.563 0 0 1 6.434-1.297Z" fill="url(#b)"/><path d="M37.867 56.801c-.281 0-.561 0-.841-.022l-.253 5.112a21.54 21.54 0 0 0 9.46-1.655 21.777 21.777 0 0 0 7.088-4.808l-3.572-3.624a16.752 16.752 0 0 1-5.449 3.7 16.568 16.568 0 0 1-6.433 1.297Z" fill="url(#c)"/><path d="m47.346 25.692 4.251-3.176A21.589 21.589 0 0 0 37.86 17.6v5.118a16.574 16.574 0 0 1 9.486 2.974Z" fill="url(#d)"/><path d="M59.733 39.76a22.587 22.587 0 0 0-.344-3.971l-4.706 3.515v.456a17.191 17.191 0 0 1-1.446 6.912 16.988 16.988 0 0 1-4.094 5.718l3.395 3.803a22.091 22.091 0 0 0 5.32-7.442 22.353 22.353 0 0 0 1.875-8.991Z" fill="#21A038"/><path d="M37.867 56.802a16.6 16.6 0 0 1-6.82-1.465 16.79 16.79 0 0 1-5.644-4.149l-3.75 3.439a21.823 21.823 0 0 0 7.342 5.393 21.563 21.563 0 0 0 8.872 1.9v-5.118Z" fill="url(#e)"/><path d="m26.591 27.13-3.393-3.803a22.09 22.09 0 0 0-5.322 7.44A22.354 22.354 0 0 0 16 39.76h5.052a17.193 17.193 0 0 1 1.445-6.911 16.992 16.992 0 0 1 4.094-5.719Z" fill="url(#f)"/><defs><linearGradient id="a" x1="23.426" y1="54.788" x2="17.774" y2="38.666" gradientUnits="userSpaceOnUse"><stop offset=".14" stop-color="#F1E813"/><stop offset=".3" stop-color="#E6E418"/><stop offset=".58" stop-color="#C9DA26"/><stop offset=".89" stop-color="#A2CC39"/></linearGradient><linearGradient id="b" x1="23.847" y1="24.997" x2="38.11" y2="19.633" gradientUnits="userSpaceOnUse"><stop offset=".06" stop-color="#0FA7DF"/><stop offset=".54" stop-color="#0098F8"/><stop offset=".92" stop-color="#0290EA"/></linearGradient><linearGradient id="c" x1="36.44" y1="58.83" x2="52.536" y2="55.242" gradientUnits="userSpaceOnUse"><stop offset=".12" stop-color="#A2CC39"/><stop offset=".28" stop-color="#86C239"/><stop offset=".87" stop-color="#219F38"/></linearGradient><linearGradient id="d" x1="36.81" y1="19.314" x2="50.585" y2="23.509" gradientUnits="userSpaceOnUse"><stop offset=".06" stop-color="#0290EA"/><stop offset=".79" stop-color="#0C89CA"/></linearGradient><linearGradient id="e" x1="22.92" y1="54.004" x2="37.928" y2="59.538" gradientUnits="userSpaceOnUse"><stop offset=".13" stop-color="#F1E813"/><stop offset=".3" stop-color="#EAE616"/><stop offset=".53" stop-color="#D8DF1F"/><stop offset=".8" stop-color="#BAD52D"/><stop offset=".98" stop-color="#A2CC39"/></linearGradient><linearGradient id="f" x1="17.882" y1="40.379" x2="24.028" y2="24.603" gradientUnits="userSpaceOnUse"><stop offset=".07" stop-color="#A2CC39"/><stop offset=".26" stop-color="#81C45E"/><stop offset=".92" stop-color="#0FA7DF"/></linearGradient></defs></svg>