<svg width="320" height="80" fill="none" xmlns="http://www.w3.org/2000/svg"><path d="M126.4 15.568H88.24L91.008 8h38.112l-2.72 7.568Zm-1.36 3.76H86.88l-2.752 7.552h38.112l2.8-7.552Zm-4.128 11.28H82.768L80 38.16h38.08l2.832-7.552Z" fill="#009FDF"/><path d="M217.168 57.04H224a5.908 5.908 0 0 0 5.248-2.048 6.393 6.393 0 0 0 1.328-4.32 6.058 6.058 0 0 0-2.368-5.168 6.861 6.861 0 0 0-4.32-1.088h-6.8v12.608l.08.016Zm-9.008 7.6V19.328h29.488l-2.608 7.6h-17.872V36.96h7.28c5.888 0 8.928 1.408 11.04 3.2a13.422 13.422 0 0 1 4.48 10.768 13.037 13.037 0 0 1-1.25 6.273 13.045 13.045 0 0 1-4.078 4.927c-2.848 1.968-5.808 2.528-11.84 2.528l-14.64-.016Zm-26.128 0V26.928h-13.12v-7.6h36.4l-2.608 7.6h-11.6v37.76h-9.088l.016-.048Zm-36.32-27.2h5.168a10.16 10.16 0 0 0 3.2-.24 4.988 4.988 0 0 0 3.44-5.168 4.579 4.579 0 0 0-3.44-5.04 12.397 12.397 0 0 0-3.44-.32h-4.8V37.44h-.128Zm0 7.84v11.888H152a6.734 6.734 0 0 0 4.8-1.328 5.913 5.913 0 0 0 1.936-4.64 6.4 6.4 0 0 0-1.2-3.888c-1.328-1.728-3.008-2.048-5.808-2.048h-6l-.016.016Zm14.528-4.8v.16a15.991 15.991 0 0 1 4.256 2.56 10.655 10.655 0 0 1 3.84 8.88c0 6.208-3.28 10.688-8.688 12a22.83 22.83 0 0 1-6.608.64h-16.32V19.328h14.528a26.596 26.596 0 0 1 6.88.64c5.248 1.408 8.688 5.04 8.688 10.768a10.023 10.023 0 0 1-2.88 7.36 10.768 10.768 0 0 1-3.568 2.4h-.128v-.016Z" fill="#0A2973"/></svg>